
<svg version="1.1" id="main" xmlns="http://www.w3.org/2000/svg" xmlns:xlink="http://www.w3.org/1999/xlink" x="0px" y="0px"
	 viewBox="0 0 500 300" style="enable-background:new 0 0 200 200;" xml:space="preserve">
<style type="text/css" >
	.st0{fill:#D45136;}
	.st1{fill:#D8D8D8;}
	.st2{fill:#E76541;}
	.st3{fill:#E49788;}
	.st4{fill:#434849;}
	.st5{fill:#FFFFFF;}

	.st2:hover{fill: #6ac639;}
	.st0:hover{fill: #6ac639;}
	.st3:hover{fill: #9ddb79;}

	#tail{
		-webkit-transform: rotate(30deg); /* Chrome, Safari, Opera */
		-webkit-transform-origin: 10% 50%; /* Chrome, Safari, Opera */
		transform: rotate(30deg);
		transform-origin: 10% 50%;
	  animation: dance 2s infinite alternate;
	}

	@keyframes dance {
	  100% {
	    transform: rotate(3deg);
	  }
	}


</style>
<g id="fox">
	<g id="body">
		<g id="tail">
			<g>
				<g>
					<path class="st0" d="M104.5,139.6c16.3,13.4,37.8,4.4,50.4-9.6c1-1.1,2.1-2.1,3.3-3c5.4-0.3,11.2,0.4,16,3
						c0,0-8.6,6.5-11.8,13.6c0,0,9.6,2,17.2-2.8c0,0-0.9,11.4-9,21.2c-2.5,0.8-5.2,1.5-8.2,2c-49.6,9.8-63.9-18.4-63.9-18.4
						L104.5,139.6z"/>
				</g>
			</g>
			<g>
				<g>
					<path class="st1" d="M162.4,143.6c3.3-7.1,11.8-13.6,11.8-13.6c-4.8-2.7-10.6-3.3-16-3c14-11.1,40-11.5,40-11.5
						s12.2,34.3-27.6,46.5c8-9.8,9-21.2,9-21.2C172,145.5,162.4,143.6,162.4,143.6z"/>
				</g>
			</g>
		</g>
		<path id="belly" class="st2" d="M134.9,130c0,31.7,0,57.7-57.3,57.3h-1c-57.3,3.9-57.3-25.7-57.3-57.3v-0.9
			c0-31.7,25.7-57.3,57.3-57.3h1c31.7,0,57.3,25.7,57.3,57.3V130z"/>
	</g>
	<g id="head">
		<g id="ears">
			<g>
				<path class="st2" d="M108.6,32.9c0,0,14.9-20.9,43.6-20.9c0,0,2.9,27.1-15.5,48.1"/>
				<path class="st3" d="M108.9,39c0,0,11.6-16.2,33.8-16.2c0,0,2.2,21-12,37.2"/>
			</g>
			<g>
				<path class="st2" d="M43.8,32.9c0,0-14.9-20.9-43.6-20.9c0,0-2.9,27.1,15.5,48.1"/>
				<path class="st3" d="M43.5,39c0,0-11.6-16.2-33.8-16.2c0,0-2.2,21,12,37.2"/>
			</g>
		</g>
		<g id="face">
			<path class="st2" d="M77,21.3c0,0-60.5,0-75.2,76.3c0,0,56.5-11.4,75.2,17.9c15.2-26.2,75.2-17.9,75.2-17.9
				C137.5,21.3,77,21.3,77,21.3z"/>
			<path class="st1" d="M34.6,37.9c0,0,8.8,3.9,21.8,22.9c13.8,20.2,10.7,44.8,10.7,44.8S50.3,93.4,1.8,97.6
				C1.8,97.6,5.1,59.7,34.6,37.9z"/>
			<path class="st1" d="M119.8,37.9c0,0-8.8,3.9-21.8,22.9C84.2,81,87.3,105.6,87.3,105.6s16.8-12.1,65.3-7.9
				C152.6,97.6,149.3,59.7,119.8,37.9z"/>
		</g>
		<g id="eyes_x2B_nose">
			<g>
				<g>
					<circle class="st4" cx="108.6" cy="69.6" r="6.3"/>
					<circle class="st5" cx="111.3" cy="68.4" r="2.4"/>
				</g>
				<g>
					<circle class="st4" cx="45.7" cy="69.6" r="6.3"/>
					<circle class="st5" cx="48.1" cy="68.4" r="2.4"/>
				</g>
			</g>
			<path class="st4" d="M87,105.6c0,5.5-4.5,10-10,10c-5.5,0-10-4.5-10-10"/>
		</g>
	</g>
</g>
</svg>
