<?xml version="1.0" encoding="utf-8"?>
<!-- Generator: Adobe Illustrator 20.1.0, SVG Export Plug-In . SVG Version: 6.00 Build 0)  -->
<svg version="1.1" id="Layer_1" xmlns="http://www.w3.org/2000/svg" xmlns:xlink="http://www.w3.org/1999/xlink" x="0px" y="0px"
	 viewBox="0 0 200 200" style="enable-background:new 0 0 200 200;" xml:space="preserve">
<style type="text/css">
	.st0{fill-rule:evenodd;clip-rule:evenodd;fill:#474646;stroke:#FFFFFF;stroke-width:3;stroke-miterlimit:10;}
</style>
<path class="st0" d="M200,100.1C200,100.1,200,100,200,100.1L200,100.1C199.1,45.2,154.8,0.9,99.9,0l0,0c0,0,0,0,0,0c0,0,0,0,0,0
	l0,0C45.1,0.9,0.8,45.2-0.1,100h0c0,0,0,0,0,0c0,0,0,0,0,0h0c0.9,54.9,45.2,99.2,100.1,100v0C154.8,199.3,199.1,155,200,100.1
	L200,100.1C200,100.1,200,100.1,200,100.1z M99.9,175.6c-41.3-0.9-74.7-34.2-75.6-75.6c0.9-41.4,34.2-74.7,75.6-75.6
	c41.3,0.9,74.7,34.2,75.6,75.6C174.6,141.4,141.3,174.8,99.9,175.6z"/>
</svg>
