<?xml version="1.0" encoding="utf-8"?>
<!-- Generator: Adobe Illustrator 20.1.0, SVG Export Plug-In . SVG Version: 6.00 Build 0)  -->
<svg version="1.1" id="Layer_1" xmlns="http://www.w3.org/2000/svg" xmlns:xlink="http://www.w3.org/1999/xlink" x="0px" y="0px"
	 viewBox="0 0 200 200" style="enable-background:new 0 0 200 200;" xml:space="preserve">
<style type="text/css">
	.st0{fill-rule:evenodd;clip-rule:evenodd;fill:#DCDCDC;stroke:#FFFFFF;stroke-width:3;stroke-miterlimit:10;}
	.st1{fill-rule:evenodd;clip-rule:evenodd;fill:#474646;stroke:#FFFFFF;stroke-width:3;stroke-miterlimit:10;}
</style>
<path class="st0" d="M199.9,99.9C199,45.1,154.7,0.9,99.9,0h0C72.5,0.4,47.7,11.7,29.7,29.7c-18,18-29.3,42.8-29.8,70.2
	c0,0,0,0.1,0,0.1c0,0,0,0,0,0.1c0.4,27.4,11.7,52.2,29.8,70.2c18,18,42.8,29.3,70.2,29.7v-24.5c-41.3-0.8-74.6-34.2-75.5-75.5
	c0.9-41.3,34.2-74.6,75.5-75.5c41.3,0.8,74.6,34.2,75.5,75.5L199.9,99.9C199.9,100,199.9,100,199.9,99.9L199.9,99.9z"/>
<path class="st1" d="M199.9,100.1L199.9,100.1c-0.5,27.4-11.8,52.2-29.8,70.2c-18.1,18-42.8,29.3-70.2,29.7h0v-24.5
	c41.3-0.8,74.6-34.2,75.5-75.5L199.9,100.1C199.9,100,199.9,100,199.9,100.1z"/>
</svg>
