<?xml version="1.0" encoding="utf-8"?>
<!-- Generator: Adobe Illustrator 20.1.0, SVG Export Plug-In . SVG Version: 6.00 Build 0)  -->
<svg version="1.1" id="Layer_1" xmlns="http://www.w3.org/2000/svg" xmlns:xlink="http://www.w3.org/1999/xlink" x="0px" y="0px"
	 viewBox="0 0 200 200" style="enable-background:new 0 0 200 200;" xml:space="preserve">
<style type="text/css">
	.st0{fill:#969696;}
	.st1{fill-rule:evenodd;clip-rule:evenodd;fill:#DADADA;stroke:#FFFFFF;stroke-miterlimit:10;}
	.st2{fill:none;stroke:#FFFFFF;stroke-width:3;stroke-miterlimit:10;}
	.st3{fill-rule:evenodd;clip-rule:evenodd;fill:#474646;stroke:#FFFFFF;stroke-width:3;stroke-miterlimit:10;}
</style>
<g>
	<g>
		<g>
			<g>
				<path class="st0" d="M100,175.5c-41.3-0.8-74.7-34.2-75.5-75.5H0c0.9,54.9,45.2,99.2,100,100V175.5z"/>
			</g>
			<g>
				<path class="st0" d="M100,175.5c-41.3-0.8-74.7-34.2-75.5-75.5H0c0.9,54.9,45.2,99.2,100,100V175.5z"/>
			</g>
			<g>
				<path class="st0" d="M100,175.5c-41.3-0.8-74.7-34.2-75.5-75.5H0c0.9,54.9,45.2,99.2,100,100V175.5z"/>
			</g>
		</g>
	</g>
	<g>
		<g>
			<g>
				<path class="st1" d="M100,175.5c-41.3-0.8-74.7-34.2-75.5-75.5H0c0.9,54.9,45.2,99.2,100,100V175.5z"/>
			</g>
		</g>
	</g>
	<g>
		<g>
			<g>
				<path class="st2" d="M100,175.5c-41.3-0.8-74.7-34.2-75.5-75.5H0c0.9,54.9,45.2,99.2,100,100V175.5z"/>
			</g>
			<g>
				<path class="st2" d="M100,175.5c-41.3-0.8-74.7-34.2-75.5-75.5H0c0.9,54.9,45.2,99.2,100,100V175.5z"/>
			</g>
			<g>
				<path class="st2" d="M100,175.5c-41.3-0.8-74.7-34.2-75.5-75.5H0c0.9,54.9,45.2,99.2,100,100V175.5z"/>
			</g>
		</g>
	</g>
</g>
<path class="st3" d="M200,100C200,100,200,100,200,100L200,100C199.1,45.1,154.8,0.9,100,0l0,0c0,0,0,0,0,0c0,0,0,0,0,0l0,0
	C45.1,0.9,0.9,45.2,0,100h24.5c0.8-41.3,34.2-74.7,75.5-75.5c41.3,0.9,74.6,34.2,75.5,75.5c-0.9,41.3-34.2,74.7-75.5,75.5V200
	C154.8,199.1,199.1,154.9,200,100L200,100C200,100,200,100,200,100z"/>
</svg>
