<svg id="Layer_1" data-name="Layer 1" xmlns="http://www.w3.org/2000/svg" viewBox="0 0 300 300"><defs><style>.cls-1{fill:#5bebf4;}.cls-2{fill:#fe334f;}</style></defs><title>behance button kek-piros</title><circle class="cls-1" cx="150" cy="150" r="150"/><path class="cls-2" d="M143.12,113.33a23.66,23.66,0,0,1,4.25,14.16q0,8.48-4.28,13.65a22.1,22.1,0,0,1-7.08,5.28,20.83,20.83,0,0,1,10.72,8.2,24.6,24.6,0,0,1,3.61,13.59A27,27,0,0,1,146.19,183a25.56,25.56,0,0,1-17,12,64.18,64.18,0,0,1-13.1,1.25H74.3V103.44h44.79Q136.05,103.69,143.12,113.33Zm-50.34,6.23V140h22.54a18.7,18.7,0,0,0,9.81-2.31c2.5-1.54,3.77-4.26,3.77-8.14q0-6.49-5-8.57a34.94,34.94,0,0,0-11-1.45H92.78Zm0,35.81v24.74h22.5c4,0,7.16-.55,9.39-1.63,4.08-2,6.1-5.88,6.1-11.58,0-4.83-2-8.15-5.9-10a23.53,23.53,0,0,0-9.27-1.58H92.78ZM206.38,129a27.65,27.65,0,0,1,11.83,10.15,33.27,33.27,0,0,1,5.48,14.18,88.43,88.43,0,0,1,.59,13.62H174.34c0.29,6.88,2.66,11.71,7.18,14.47A18.16,18.16,0,0,0,191.4,184a15.17,15.17,0,0,0,9.94-3.15,14.77,14.77,0,0,0,3.69-4.72h18.3c-0.48,4.07-2.7,8.2-6.64,12.41q-9.21,10-25.79,10a37.26,37.26,0,0,1-24.14-8.44q-10.49-8.44-10.46-27.46,0-17.85,9.43-27.36t24.51-9.51A39,39,0,0,1,206.38,129ZM179.56,144.5a18.69,18.69,0,0,0-4.78,10.62h30.9c-0.33-4.76-1.93-8.36-4.77-10.84a15.75,15.75,0,0,0-10.64-3.7C185.67,140.58,182.09,141.89,179.56,144.5Zm30.31-36.73H170.15v11.54h39.72V107.77Z"/></svg>