<?xml version="1.0" encoding="utf-8"?>
<!-- Generator: Adobe Illustrator 20.1.0, SVG Export Plug-In . SVG Version: 6.00 Build 0)  -->
<svg version="1.1" id="Layer_1" xmlns="http://www.w3.org/2000/svg" xmlns:xlink="http://www.w3.org/1999/xlink" x="0px" y="0px"
	 viewBox="0 0 20 20" style="enable-background:new 0 0 20 20;" xml:space="preserve">
<style type="text/css">
	.st0{fill:#474646;}
</style>
<path class="st0" d="M13.2,10.2l-1.4-0.5V8.5l1.4-0.5c0.2,0,0.3,0.1,0.3,0.3v1.7C13.5,10.1,13.3,10.2,13.2,10.2z M10.4,8.2
	c-0.7,0-1.3-0.6-1.3-1.3s0.6-1.3,1.3-1.3s1.3,0.6,1.3,1.3C11.7,7.6,11.2,8.2,10.4,8.2z M7.8,8.2c-0.7,0-1.3-0.6-1.3-1.3
	s0.6-1.3,1.3-1.3c0.7,0.1,1.3,0.6,1.3,1.3S8.6,8.2,7.8,8.2z M11.4,8.2v2.6H9.8c0,0.3-0.1,0.4-0.3,0.5h0.2l1.2,2.6h-0.3l-0.4-0.9H9.5
	v1.4H9.1v-1.4H8.4L8,13.9H7.7l1.2-2.6h0.1c-0.2-0.1-0.3-0.4-0.3-0.5H6.8V8.2h1h2.6H11.4z M9.1,11.4L9.1,11.4l-0.6,1.3h0.6V11.4z
	 M9.5,11.4v1.3h0.6L9.5,11.4L9.5,11.4z"/>
</svg>
