<?xml version="1.0" encoding="utf-8"?>
<!-- Generator: Adobe Illustrator 20.1.0, SVG Export Plug-In . SVG Version: 6.00 Build 0)  -->
<svg version="1.1" id="Layer_1" xmlns="http://www.w3.org/2000/svg" xmlns:xlink="http://www.w3.org/1999/xlink" x="0px" y="0px"
	 viewBox="0 0 20 20" style="enable-background:new 0 0 20 20;" xml:space="preserve">
<style type="text/css">
	.st0{fill:#474646;}
</style>
<g>
	<g>
		<path class="st0" d="M6.5,12.2V9.3H6c-0.1,0-0.2,0.1-0.2,0.1v3.9c0,0.1,0.1,0.2,0.2,0.2h5.9c0.1,0,0.2-0.1,0.2-0.2v-0.8H6.7
			C6.5,12.4,6.5,12.4,6.5,12.2z M7.5,10.8V7.9H7C6.9,7.9,6.8,8,6.8,8.1v4h6.1c0.1,0,0.2-0.1,0.2-0.2v-0.8H7.7
			C7.6,11.1,7.5,11,7.5,10.8z M14,6.5H8.1c-0.1,0-0.2,0.1-0.2,0.2v4H14c0.1,0,0.2-0.1,0.2-0.2V6.7C14.2,6.6,14.1,6.5,14,6.5z"/>
	</g>
</g>
</svg>
