<svg id="Layer_1" data-name="Layer 1" xmlns="http://www.w3.org/2000/svg" viewBox="0 0 300 300"><defs><style>.cls-1{fill:#fe334f;}.cls-2{fill:#5bebf4;}</style></defs><title>vimeo button red</title><circle class="cls-1" cx="150" cy="150" r="150"/><path class="cls-2" d="M216.43,116.16q-0.95,21.13-29.53,57.78-29.56,38.33-50,38.32-12.66,0-21.43-23.36-5.86-21.45-11.7-42.86-6.52-23.38-14-23.37c-1.08,0-4.86,2.26-11.36,6.82l-6.81-8.78q10.7-9.38,21.12-18.81c9.51-8.24,16.66-12.54,21.44-13q16.86-1.64,20.8,23,4.18,26.64,5.83,33.13,4.87,22.08,10.72,22.06,4.53,0,13.64-14.26c6.07-9.53,9.31-16.77,9.74-21.77q1.3-12.34-9.74-12.32A27.61,27.61,0,0,0,154.39,121q10.74-34.75,40.94-33.76Q217.72,87.91,216.43,116.16Z"/></svg>